Patient4_TMGait_0pt8_01_left_40_EMG.mot
version=1
nRows=36
nColumns=33
inDegrees=no
endheader
time	1LAddLong	2LGlutMax	3LGlutMed	4LIliopsoas	5LSemiMemb	6LBicFemLong	7LRecFem	8LVastMed	9LVastLat	10LGasMed	11LTibAnt	12lTibPost	13LPeroneusLong	14LSol	15LExtDigLong	16LFlexDigLong	17RAddLong	18RGlutMax	19RGlutMed	20RIliopsoas	21RSemiMemb	22RBicFemLong	23RRecFem	24RVastMed	25RVastLat	26RGasMed	27RTibAnt	28RTibPost	29RPeroneusLong	30RSol	31RExtDigLong	32RFlexDigLong
45.49	0.013733	0.33798	0.030212	0.012512	0.008392	-0.000458	0.018005	0.003967	0.1178	-0.079498	-0.055542	-0.008698	0.027924	-0.06546	-0.050507	-0.009308	-0.005035	-0.13519	0.27832	-0.039825	-0.027466	0.001526	-0.33432	-0.041199	0.59509	-0.010986	0.13458	0.000305	-0.085297	0.21393	-0.00061	-0.016632
45.491	0.014954	0.32028	0.052795	-0.010986	0.01358	0.019989	-0.006561	0.006866	0.11932	-0.077057	-0.076294	-0.015717	0.018463	-0.083618	-0.0177	0.000763	0.014496	-0.052643	0.86945	0.014648	-0.050964	-0.009308	0.10986	-0.10239	0.49515	-0.010529	-0.022278	0.000305	-0.24826	0.16113	-0.008392	-0.017548
45.492	0.006256	0.32242	0.009918	0.018463	-0.002289	0.04837	0.016479	0.009308	0.11124	-0.079346	-0.005798	-0.007782	0.037537	-0.068359	-0.018921	-0.003662	0.013428	-0.045319	0.54001	-0.028229	-0.046234	-0.019989	0.41794	0.024719	0.13214	-0.015106	0.050201	0.000458	-0.032196	0.16708	-0.004883	-0.023041
45.493	0.00473	0.34576	-0.03418	0.005035	-0.005493	0.056	0.011444	0.011292	0.10834	-0.074158	0.015717	-0.01297	0.071106	-0.019531	-0.023804	0.003662	0.005035	-0.08316	0.11902	-0.057068	-0.041809	0.000153	0.28717	-0.070648	-0.29846	-0.007629	0.2977	0.002899	0.25635	0.11368	-0.002747	-0.014343
45.494	-0.00061	0.36057	-0.060883	0.003357	-0.00824	0.039215	0.015869	0.011749	0.11078	-0.059509	-0.019684	-0.013275	0.093994	0.014801	-0.007172	0.013885	0.005341	-0.09613	-0.16907	0.040894	-0.025787	-0.020447	0.24262	-0.15625	-0.69427	-0.011139	0.1593	-0.001526	0.24963	0.13229	-0.005035	-0.00824
45.495	0.008392	0.35416	-0.054474	-0.002441	-0.018921	0.03006	-0.01297	0.012817	0.10056	-0.037537	0.042267	-0.010529	0.079956	-0.013733	0.11795	0.019073	0.006104	-0.14297	-0.56473	0.042725	-0.013275	-0.001831	0.11627	-0.098419	-0.22018	-0.011902	0.15198	0.002747	-0.037689	0.10757	-0.001831	-0.010681
45.496	0.010986	0.35065	-0.078278	0.000763	0.000153	0.030823	0.021362	0.016174	0.011444	-0.010986	0.098877	-0.011749	0.10986	-0.03952	0.20584	0.006104	-0.030823	-0.2681	-0.30731	-0.10895	0.005646	0.032501	-0.3006	0.089569	0.031128	-0.015259	0.23529	0.001526	-0.085754	0.045776	-0.001984	-0.020142
45.497	0.019836	0.37003	-0.034027	0.013733	0.015564	0.01297	0.030365	0.005035	0.21439	-0.02243	-0.010223	-0.004425	0.16113	-0.064087	0.081482	-0.005493	-0.033569	-0.25482	-0.15182	-0.37705	0.00473	0.024261	-0.5098	0.15228	0.12497	-0.007782	0.33081	0.001526	-0.02533	0.031586	-0.001221	-0.009155
45.498	0.027008	0.34927	0.014496	0.006561	-0.00824	0.015717	0.051575	0.009155	0.19898	-0.004578	-0.040283	-0.007324	0.10574	-0.1178	0.016785	0.00473	-0.02594	-0.23224	-0.085907	-0.40283	-0.011139	-0.012054	-0.85373	0.007324	0.10376	-0.00946	0.31937	0.003662	0.29434	0.035706	-0.003052	-0.007629
45.499	0.021057	0.31082	-0.046997	0.018158	0.018768	0.016327	0.032959	0.010681	0.20187	0.005951	-0.040436	-0.010834	0.063782	-0.093079	0.040741	-0.01358	-0.010834	-0.14023	-0.17151	-0.20371	-0.020447	-0.007324	-0.63187	-0.016327	-0.31799	0.001526	0.42725	0.004425	0.45197	-0.21347	0.00061	-0.005035
45.5	0.017395	0.31662	-0.0737	-0.000305	0.013428	0.019989	0.018158	0.00946	-0.076599	-0.007935	0.076752	-0.005951	0.046387	-0.049438	0.045471	-0.009766	0.004883	-0.086517	-0.10284	0.13245	-0.026398	-0.00885	-0.38406	-0.046387	-0.12802	-0.001221	0.3952	-0.001373	-0.67963	-0.23025	-0.001068	-0.001068
45.501	0.019073	0.29114	-0.052643	-0.005798	0.013123	0.018463	0.031738	0.010376	-0.13458	-0.019684	0.093079	-0.016785	0.028076	-0.049591	-0.007629	-0.022278	0.001526	-0.083313	0.057678	0.52887	-0.019989	0.009613	-0.20096	-0.11963	-0.045013	-0.013275	0.20126	0.001831	-0.2742	-0.02594	-0.003357	-0.010223
45.502	0.0177	0.30731	-0.056	0.002747	0.006104	0.018616	0.010986	0.009613	-0.17685	-0.034943	0.011139	0.006866	0.029755	-0.045319	0.2565	-0.000305	0.009308	-0.042419	-0.034637	0.50354	-0.029144	-0.021057	-0.18341	-0.19058	-0.016327	-0.013123	0.063934	0.002441	0.18158	-0.08255	-0.00473	-0.009918
45.503	0.016022	0.27359	-0.008545	0.003357	-0.010834	0.019989	-0.027313	0.006714	-0.007782	-0.027924	-0.09201	-0.007172	0.040741	-0.028381	-0.053864	-0.003967	0.010529	-0.060883	0.12909	0.24674	-0.033264	-0.02655	-0.005646	-0.047302	-0.026398	-0.012817	0.1767	0.001984	0.004883	-0.04837	-0.00473	-0.002747
45.504	0.003204	0.25345	0.039063	0.00061	-0.02533	0.030365	-0.042877	0.011292	0.19699	-0.027771	-0.16663	0.003815	0.046387	-0.023499	-0.07019	-0.009155	0.006409	0.040436	-0.23331	0.05127	-0.020752	-0.026245	0.048676	0.13199	-0.079498	-0.017242	0.74432	0.001068	-0.43121	0.073242	0	-0.005493
45.505	0.003967	0.24216	0.079346	-0.000458	-0.037384	0.008698	-0.062866	0.01236	0.31387	-0.032654	-0.15656	0.006256	0.053711	-0.01297	-0.12009	0.000305	0.016022	-0.091705	-0.1709	-0.11597	-0.04715	-0.038757	0.063782	0.18967	-0.05661	-0.008545	0.79987	0.004272	0.98694	-0.031586	-0.000305	-0.013885
45.506	-0.001373	0.24017	0.093689	-0.010681	0.003967	0.033264	-0.052338	0.011597	0.336	-0.040741	-0.13534	0.003815	0.048981	-0.037231	-0.014343	-0.00412	0.028839	-0.013275	-0.58441	-0.19501	-0.057831	-0.024719	-0.048676	0.12665	-0.13534	0.009308	0.14069	0.003815	1.7308	-0.052185	-0.000916	-0.001678
45.507	-0.002441	0.25101	0.037842	0.009003	0.005188	0.037079	-0.051575	0.016022	0.2829	-0.034637	0.006409	-0.015717	0.046387	-0.053558	0.042725	-0.005646	0.020752	-0.000458	-0.96207	-0.10208	-0.024109	-0.01236	-0.2652	0.11948	-0.092163	0.002747	0.12207	0.002289	0.12238	-0.032654	-0.003204	-0.009766
45.508	-0.003662	0.21927	0.025177	-0.007782	0.006104	0.056763	-0.02182	0.013123	0.26382	-0.037231	0.11169	-0.021667	0.049438	-0.081177	0.025177	-0.00946	0.019684	-0.054932	-0.72205	-0.032196	-0.000763	0.006561	-0.30594	0.011597	-0.084991	0.001373	-0.72983	0.001984	-0.00824	-0.074615	-0.001526	-0.007935
45.509	0.008087	0.2214	-0.004578	0.011292	-0.026855	0.029755	0.016937	0.014648	0.336	-0.033417	0.12604	0.010529	0.0737	-0.075989	-0.055542	0.009766	0.003815	-0.048676	-0.47928	0.041962	-0.023346	0.007935	-0.41657	-0.18967	0.014648	0.003662	-1.7119	-0.000153	-0.52567	-0.063477	-0.000916	-0.003967
45.51	0.013123	0.21255	-0.039215	0.034485	-0.048523	0.015869	0.011902	0.006104	0.30655	-0.032806	0.088654	-0.018616	0.059052	-0.072174	-0.038452	0.026245	0.00885	-0.03952	1.6862	0.15182	-0.030365	-0.009766	-0.23712	-0.12756	0.05661	-0.011139	-1.077	0.002899	-0.65506	-0.042572	0.000458	-0.012512
45.511	0.016632	0.20462	-0.018158	0.008698	-0.023651	0.001373	0.036926	0.011139	0.3743	-0.019226	0.056915	0.005341	0.029144	-0.043335	-0.004883	0.013275	0.01297	-0.024719	1.9185	0.14374	-0.009918	-0.008698	-0.046844	-0.10101	-0.055695	-0.006104	-0.4451	-0.000763	-0.44159	0.02655	-0.008392	-0.014038
45.512	0.016022	0.1532	-0.016785	-0.005188	0.03891	-0.01297	0.042419	0.056305	0.33936	-0.048828	0.004425	-0.010071	0.022583	-0.028534	0.014191	0.00351	0.007935	-0.084534	0.072479	0.15015	-0.051727	0.016174	-0.12039	-0.081635	-0.02243	0.008698	-0.2034	0.001831	0.13748	0.032501	-0.001221	-0.00885
45.513	0.01236	0.1799	0.013885	-0.006409	0.092621	0.006866	0.042725	-0.00412	0.14923	-0.054626	-0.019226	0.007019	0.025177	-0.002747	0.048218	-0.020752	-0.002441	-0.056915	-0.54367	0.089874	-0.086365	0.072174	-0.1796	-0.1207	0.021973	-0.006714	0.039978	-0.000916	0.18555	-0.024414	-0.001678	-0.01709
45.514	0.016632	0.15137	0.018921	0.018463	0.066376	0.034637	0.058746	0.00885	0.14557	-0.045929	-0.059814	-0.003204	0.038147	-0.039368	0.055847	-0.027466	0.001831	-0.059814	0.13779	-0.001984	-0.079193	0.04715	-0.12253	-0.10864	0.016785	-0.008545	0.16403	-0.001068	-0.59815	0.016022	0.001068	-0.012054
45.515	0.016022	0.12665	-0.012207	0.015564	0.028839	0.043793	0.070038	0.007324	0.093536	-0.037689	-0.05661	-0.003662	0.036163	-0.047302	0.033722	-0.031738	0.015259	-0.082397	0.1207	0.058746	0.017395	-0.048981	-0.10208	-0.10468	0.024567	0.003052	0.06012	0.00351	-0.33295	0.031891	0.001678	-0.00946
45.516	0.009003	0.10132	-0.097809	0.008087	0.005493	0.06897	0.09552	0.007782	0.11475	-0.039063	-0.029297	-0.008698	0.043335	-0.07782	0.010376	-0.005798	0.04303	-0.13962	-0.46356	0.041962	-0.013275	-0.11993	-0.014801	-0.1268	0.053101	0.002594	0.049133	0.001526	-0.80688	0.08667	-0.00412	-0.00946
45.517	0.003357	0.065765	-0.30197	0.006866	-0.004883	0.04715	0.10895	0.000763	0.048065	-0.027924	0.026093	-0.012054	0.039825	-0.081177	-0.015106	0.016937	0.018158	-0.12619	0.001678	0.045624	0.033417	-0.14725	-0.091095	-0.12116	0.12817	0.008698	0.06012	0	-0.83557	0.000305	-0.004883	-0.011139
45.518	-0.000305	0.069733	-0.43243	-0.006561	0.008392	0.025787	0.12131	-0.000153	-0.032501	-0.025787	0.057678	0.003357	0.040436	-0.094757	-0.02655	0.001678	-0.005188	0.007019	0.49362	0.072784	-0.072021	-0.08255	-0.12634	-0.077667	0.14435	0.003357	0.001831	0.005951	-0.38498	-0.042725	-0.003204	-0.006256
45.519	0.00351	0.068665	-0.2623	0.007019	0.007172	0.006561	0.12299	0.000916	-0.11414	-0.036621	0.02182	-0.013428	0.0177	-0.099792	-0.010376	0.005035	-0.012817	-0.049286	0.12817	0.053101	-0.12817	0.058899	-0.066833	0.16754	0.27359	-0.000458	-0.09964	0.003357	-0.16693	0.000763	-0.005951	-0.011902
45.52	0.000916	0.06073	0.057831	0.002899	0.006256	-0.005493	0.10056	-0.001373	-0.16159	-0.016174	0.029144	0.006866	0.01358	-0.057983	0.060577	0.006104	-0.00946	-0.13977	-0.66055	0	0.021667	0.11643	-0.059357	0.30334	0.37842	-0.005493	-0.14099	0.00473	0.57098	-0.006256	-0.00824	-0.010986
45.521	-0.000153	-0.013123	0.36179	-0.006714	-0.01358	0.01709	0.050201	0.003204	-0.1593	-0.003204	0.011139	-0.001678	0.048828	-0.028076	0.001831	0.000763	-0.037079	-0.022583	0.42831	-0.15076	0.005341	0.12222	-0.3215	0.34973	0.43564	-0.016785	-0.055237	0.006256	0.55496	-0.043182	-0.001526	-0.007629
45.522	0.009613	-0.019073	0.31174	-0.014343	-0.019226	0.044098	0.003052	-0.004578	-0.001068	-0.004578	0.014343	-0.009003	0.066681	-0.043793	-0.030212	0.007172	-0.038452	0.03952	0.70389	-0.32028	0.016022	0.086823	-0.49591	0.055389	0.4068	-0.017853	-0.31799	0.002289	0.20157	-0.063782	-0.001373	-0.002594
45.523	0.007324	-0.025635	0.19791	-0.005188	0.053864	0.054932	-0.042572	-0.003357	0.023346	0.000458	0.010529	-0.013428	0.075684	-0.052948	-0.029144	0.001068	-0.027771	0.036621	1.1755	-0.36118	0.020447	0.05722	-0.46906	-0.076447	0.13001	-0.019379	-0.24735	0.005188	0.074921	-0.05722	-0.001068	-0.011749
45.524	0.000305	0.016785	0.11917	0.000763	0.011292	0.057526	-0.080566	-0.005646	-0.049438	-0.012054	0.004883	0.010529	0.092316	-0.0914	-0.015564	-0.001984	-0.006104	-0.028534	0.48508	-0.24292	0.007324	0.006714	-0.25207	-0.13809	-0.55023	-0.016937	0.25696	0.001526	0.034637	-0.11597	0.005646	-0.014038
45.525	-0.005646	0.007477	0.084076	-0.000916	-0.0383	0.049896	-0.14832	-0.005341	-0.13947	-0.03067	0.011749	0.002747	0.081787	-0.071259	-0.008545	0.001831	0.016785	-0.024414	0.26306	-0.081024	0.023804	-0.00824	0.001221	-0.26245	-0.44006	-0.015106	0.23331	0.001068	0.097046	-0.0737	-0.004272	-0.013428
